# xmcd CD database file
#
# Track frame offsets:
#	150
#	16402
#	36877
#	59810
#	79735
#	117065
#	141962
#	164390
#	183547
#	225407
#	255977
#	274277
#	308300
#
# Disc length: 4339 seconds
#
# Revision: 1
# Processed by: cddbd v1.5.1PL2 Copyright (c) Steve Scherf et al.
# Submitted via: CDex 1.51
#
DISCID=a810f10d
DTITLE=Lou Donaldson - The Complete Blue Note Sessions 1957-60 CD 4
DYEAR=2002
DGENRE=Jazz
TTITLE0=The Squirrel
TTITLE1=Si Si Safronia
TTITLE2=Exactly Like You
TTITLE3=Dog Walk
TTITLE4=Gravy Train
TTITLE5=South of the Border
TTITLE6=Polka Dots and Moonbeams
TTITLE7=Avalon
TTITLE8=Candy
TTITLE9=Twist Time
TTITLE10=The Glory of Love
TTITLE11=Gravy Train (alternate take)
TTITLE12=The Glory of Love (alternate take)
EXTD=YEAR: 2002
EXTT0=
EXTT1=
EXTT2=
EXTT3=
EXTT4=
EXTT5=
EXTT6=
EXTT7=
EXTT8=
EXTT9=
EXTT10=
EXTT11=
EXTT12=
PLAYORDER=
